<svg width="512" height="512" xmlns="http://www.w3.org/2000/svg">
 <!-- Font Awesome Pro 5.15.4 by @fontawesome - https://fontawesome.com License - https://fontawesome.com/license (Commercial License) -->

 <g>
  <title>Layer 1</title>
  <path fill="#ffffff" id="svg_1" d="m370.72,133.28c-31.262,-29.272 -71.832,-45.318 -114.872,-45.28c-77.458,0.068 -144.328,53.178 -162.791,126.85c-1.344,5.363 -6.122,9.15 -11.651,9.15l-57.303,0c-7.498,0 -13.194,-6.807 -11.807,-14.176c21.637,-114.9 122.517,-201.824 243.704,-201.824c66.448,0 126.791,26.136 171.315,68.685l35.715,-35.715c15.119,-15.119 40.97,-4.411 40.97,16.971l0,134.059c0,13.255 -10.745,24 -24,24l-134.059,0c-21.382,0 -32.09,-25.851 -16.971,-40.971l41.75,-41.749zm-338.72,162.72l134.059,0c21.382,0 32.09,25.851 16.971,40.971l-41.75,41.75c31.262,29.273 71.835,45.319 114.876,45.28c77.418,-0.07 144.315,-53.144 162.787,-126.849c1.344,-5.363 6.122,-9.15 11.651,-9.15l57.304,0c7.498,0 13.194,6.807 11.807,14.176c-21.638,114.898 -122.518,201.822 -243.705,201.822c-66.448,0 -126.791,-26.136 -171.315,-68.685l-35.715,35.715c-15.119,15.119 -40.97,4.411 -40.97,-16.971l0,-134.059c0,-13.255 10.745,-24 24,-24z"/>
 </g>
</svg>