<svg width="512" height="512" xmlns="http://www.w3.org/2000/svg">
 <!-- Font Awesome Pro 5.15.4 by @fontawesome - https://fontawesome.com License - https://fontawesome.com/license (Commercial License) -->

 <g>
  <title>Layer 1</title>
  <path fill="#ffffff" id="svg_1" d="m216,0l80,0c13.3,0 24,10.7 24,24l0,168l87.7,0c17.8,0 26.7,21.5 14.1,34.1l-152.1,152.2c-7.5,7.5 -19.8,7.5 -27.3,0l-152.3,-152.2c-12.6,-12.6 -3.7,-34.1 14.1,-34.1l87.8,0l0,-168c0,-13.3 10.7,-24 24,-24zm296,376l0,112c0,13.3 -10.7,24 -24,24l-464,0c-13.3,0 -24,-10.7 -24,-24l0,-112c0,-13.3 10.7,-24 24,-24l146.7,0l49,49c20.1,20.1 52.5,20.1 72.6,0l49,-49l146.7,0c13.3,0 24,10.7 24,24zm-124,88c0,-11 -9,-20 -20,-20s-20,9 -20,20s9,20 20,20s20,-9 20,-20zm64,0c0,-11 -9,-20 -20,-20s-20,9 -20,20s9,20 20,20s20,-9 20,-20z"/>
 </g>
</svg>