<svg width="512" height="512" xmlns="http://www.w3.org/2000/svg">
 <!-- Font Awesome Pro 5.15.4 by @fontawesome - https://fontawesome.com License - https://fontawesome.com/license (Commercial License) -->

 <g>
  <title>Layer 1</title>
  <path fill="#ffffff" id="svg_1" d="m497.941,273.941c18.745,-18.745 18.745,-49.137 0,-67.882l-160,-160c-18.745,-18.745 -49.136,-18.746 -67.883,0l-256,256c-18.745,18.745 -18.745,49.137 0,67.882l96,96a48.004,48.004 0 0 0 33.942,14.059l356,0c6.627,0 12,-5.373 12,-12l0,-40c0,-6.627 -5.373,-12 -12,-12l-144.117,0l142.058,-142.059zm-302.627,-62.627l137.373,137.373l-67.314,67.313l-114.745,0l-80,-80l124.686,-124.686z"/>
 </g>
</svg>