<svg width="448" height="512" xmlns="http://www.w3.org/2000/svg">
 <!-- Font Awesome Pro 5.15.4 by @fontawesome - https://fontawesome.com License - https://fontawesome.com/license (Commercial License) -->

 <g>
  <title>Layer 1</title>
  <path fill="#ffffff" id="svg_1" d="m321,449l0,40c0,13.255 -10.745,24 -24,24l-272,0c-13.255,0 -24,-10.745 -24,-24l0,-368c0,-13.255 10.745,-24 24,-24l72,0l0,296c0,30.879 25.121,56 56,56l168,0zm0,-344l0,-104l-168,0c-13.255,0 -24,10.745 -24,24l0,368c0,13.255 10.745,24 24,24l272,0c13.255,0 24,-10.745 24,-24l0,-264l-104,0c-13.2,0 -24,-10.8 -24,-24zm120.971,-31.029l-65.942,-65.942a24,24 0 0 0 -16.97,-7.029l-6.059,0l0,96l96,0l0,-6.059a24,24 0 0 0 -7.029,-16.97z"/>
 </g>
</svg>